<?xml version="1.0" encoding="UTF-8"?>
<svg id="Layer_1" data-name="Layer 1" xmlns="http://www.w3.org/2000/svg" viewBox="0 0 1366 768">
  <defs>
    <style>
      .cls-1 {
        fill: #1e1e1e;
      }

      .cls-2 {
        fill: #fff;
      }
    </style>
  </defs>
  <g>
    <path class="cls-1" d="M459.94,412.72v-94.36h-129.99v5.83h-10.97v-5.83h-6.66v131.28h6.66v-5.83h10.97v5.83h5.44l55.08-71.12,16.39,20.99-38.83,50.14h10.1l55.08-71.12,26.72,34.21ZM329.95,433.02h-10.97v-10.97h10.97v10.97ZM329.95,411.25h-10.97v-10.97h10.97v10.97ZM329.95,389.49h-10.97v-10.97h10.97v10.97ZM329.95,367.72h-10.97v-10.97h10.97v10.97ZM329.95,345.96h-10.97v-10.97h10.97v10.97Z"/>
    <rect class="cls-2" x="318.98" y="318.36" width="10.97" height="5.83"/>
    <rect class="cls-2" x="318.98" y="334.98" width="10.97" height="10.97"/>
    <rect class="cls-2" x="318.98" y="356.75" width="10.97" height="10.97"/>
    <rect class="cls-2" x="318.98" y="378.51" width="10.97" height="10.97"/>
    <rect class="cls-2" x="318.98" y="400.28" width="10.97" height="10.97"/>
    <rect class="cls-2" x="318.98" y="422.04" width="10.97" height="10.97"/>
    <rect class="cls-2" x="318.98" y="443.81" width="10.97" height="5.83"/>
    <polygon class="cls-2" points="459.94 412.72 433.22 378.51 378.14 449.64 459.94 449.64 459.94 412.72"/>
    <polygon class="cls-1" points="390.47 378.51 335.39 449.64 368.04 449.64 406.86 399.5 390.47 378.51"/>
    <polygon class="cls-2" points="390.47 378.51 335.39 449.64 368.04 449.64 406.86 399.5 390.47 378.51"/>
  </g>
  <g>
    <path d="M544.92,357.27c-4.41-2.84-9.87-4.2-15.65-4.2-14.18,0-25.21,11.03-25.21,24.05s11.03,24.47,25.21,24.47c5.78,0,11.24-1.37,15.65-4.2v17.96c-5.04,2.42-10.71,3.47-16.8,3.47-24.79,0-42.85-18.59-42.85-41.59s18.06-41.38,42.85-41.38c6.09,0,11.76,1.16,16.8,3.57v17.85Z"/>
    <path d="M570.55,348.55h-17.64v-13.97h17.64v13.97ZM570.34,416.5h-17.33v-60.29h17.33v60.29Z"/>
    <path d="M596.28,416.5h-17.33v-60.29h16.49v7.35c3.68-4.41,10.5-8.93,19.75-8.93,12.39,0,21.64,8.51,21.64,22.37v39.49h-17.43v-34.24c0-8.93-5.04-12.29-11.34-12.29-5.46,0-11.76,4.2-11.76,11.24v35.29Z"/>
    <path d="M679.57,419.44c-22.9,0-36.65-13.97-36.65-33.08s13.76-33.08,33.5-33.08c18.59,0,32.66,13.97,32.66,33.19v4.52h-47.68c1.47,9.45,7.77,14.49,18.38,14.49,8.61,0,14.49-2.94,19.11-7.04l9.77,10.4c-6.62,5.99-15.86,10.61-29.09,10.61ZM661.93,379.32h28.57c-1.89-7.46-6.83-11.87-14.28-11.87s-12.39,4.41-14.28,11.87Z"/>
    <path d="M765.59,404.85h-31.3l-4.2,11.66h-19.43l30.35-78.35h18.48l30.35,78.35h-20.06l-4.2-11.66ZM760.34,390.14l-10.29-28.67-10.4,28.67h20.69Z"/>
    <path d="M811.81,416.5h-17.33v-81.92h17.33v81.92Z"/>
    <path d="M837.75,408.63v30.98h-17.33v-83.39h16.38v8.51c5.36-6.51,13.34-10.5,23.11-10.5,16.7,0,29.41,13.76,29.41,31.82s-12.71,32.45-29.41,32.45c-9.03,0-16.91-3.78-22.16-9.87ZM854.34,403.48c9.66,0,16.8-7.67,16.8-17.01s-7.14-17.22-16.8-17.22-17.12,7.88-17.12,17.12,7.46,17.12,17.12,17.12Z"/>
    <path d="M913.37,348.55h-17.64v-13.97h17.64v13.97ZM913.16,416.5h-17.33v-60.29h17.33v60.29Z"/>
    <path d="M939.1,416.5h-17.33v-60.29h16.49v7.35c3.68-4.41,10.5-8.93,19.75-8.93,12.39,0,21.63,8.51,21.63,22.37v39.49h-17.43v-34.24c0-8.93-5.04-12.29-11.34-12.29-5.46,0-11.76,4.2-11.76,11.24v35.29Z"/>
    <path d="M1022.39,419.44c-22.9,0-36.65-13.97-36.65-33.08s13.76-33.08,33.5-33.08c18.59,0,32.66,13.97,32.66,33.19v4.52h-47.68c1.47,9.45,7.77,14.49,18.38,14.49,8.61,0,14.49-2.94,19.11-7.04l9.77,10.4c-6.62,5.99-15.86,10.61-29.09,10.61ZM1004.74,379.32h28.57c-1.89-7.46-6.83-11.87-14.28-11.87s-12.39,4.41-14.28,11.87Z"/>
  </g>
</svg>