<svg width="199" height="32" viewBox="0 0 199 32" fill="none" xmlns="http://www.w3.org/2000/svg">
<path d="M35.9802 22.9989V0H4.29705V1.42098H1.62328V0H0V31.9976H1.62328V30.5766H4.29705V31.9976H5.62297L19.0479 14.6631L23.0427 19.7791L13.5785 32H16.0402L29.4651 14.6656L35.9778 23.0037L35.9802 22.9989ZM4.29705 27.9467H1.62328V25.2729H4.29705V27.9467ZM4.29705 22.6406H1.62328V19.9668H4.29705V22.6406ZM4.29705 17.3369H1.62328V14.6631H4.29705V17.3369ZM4.29705 12.0308H1.62328V9.357H4.29705V12.0308ZM4.29705 6.72709H1.62328V4.05332H4.29705V6.72709Z" fill="white"/>
<path d="M4.29731 0H1.62354V1.42098H4.29731V0Z" fill="#1B2632"/>
<path d="M4.29731 4.0509H1.62354V6.72468H4.29731V4.0509Z" fill="#1B2632"/>
<path d="M4.29731 9.35693H1.62354V12.0307H4.29731V9.35693Z" fill="#1B2632"/>
<path d="M4.29731 14.6606H1.62354V17.3344H4.29731V14.6606Z" fill="#1B2632"/>
<path d="M4.29731 19.9668H1.62354V22.6406H4.29731V19.9668Z" fill="#1B2632"/>
<path d="M4.29731 25.2705H1.62354V27.9443H4.29731V25.2705Z" fill="#1B2632"/>
<path d="M4.29731 30.5765H1.62354V31.9975H4.29731V30.5765Z" fill="#1B2632"/>
<path d="M35.98 22.9988L29.4674 14.6606L16.0425 31.9975H35.98V22.9988Z" fill="#1B2632"/>
<path d="M19.048 14.6606L5.62305 31.9975H13.581L23.0428 19.7766L19.048 14.6606Z" fill="white"/>
<path d="M19.048 14.6606L5.62305 31.9975H13.581L23.0428 19.7766L19.048 14.6606Z" fill="#1B2632"/>
<path d="M74.5188 8.73057C73.4439 8.03836 72.1131 7.70689 70.7043 7.70689C67.2482 7.70689 64.5598 10.3953 64.5598 13.5687C64.5598 16.7421 67.2482 19.5329 70.7043 19.5329C72.1131 19.5329 73.4439 19.199 74.5188 18.5092V22.8867C73.2904 23.4766 71.9084 23.7325 70.424 23.7325C64.3818 23.7325 59.98 19.2014 59.98 13.5955C59.98 7.98962 64.3818 3.50977 70.424 3.50977C71.9084 3.50977 73.2904 3.7925 74.5188 4.3799V8.73057Z" fill="white"/>
<path d="M80.7658 6.60518H76.4663V3.2002H80.7658V6.60518ZM80.7146 23.167H76.4907V8.47219H80.7146V23.167Z" fill="white"/>
<path d="M87.0369 23.1669H82.813V8.47213H86.8322V10.2636C87.7291 9.18872 89.3914 8.08704 91.646 8.08704C94.6658 8.08704 96.9204 10.1612 96.9204 13.5394V23.1645H92.6721V14.819C92.6721 12.6424 91.4436 11.8235 89.9081 11.8235C88.5773 11.8235 87.0418 12.8472 87.0418 14.5631V23.1645L87.0369 23.1669Z" fill="white"/>
<path d="M107.338 23.8836C101.756 23.8836 98.4048 20.4786 98.4048 15.8208C98.4048 11.163 101.759 7.75806 106.57 7.75806C111.101 7.75806 114.53 11.163 114.53 15.8476V16.9493H102.909C103.267 19.2526 104.803 20.481 107.389 20.481C109.487 20.481 110.921 19.7645 112.047 18.7651L114.428 21.3C112.814 22.76 110.562 23.886 107.338 23.886V23.8836ZM103.038 14.1049H110.002C109.541 12.2867 108.337 11.2118 106.521 11.2118C104.705 11.2118 103.501 12.2867 103.041 14.1049H103.038Z" fill="white"/>
<path d="M128.304 20.3275H120.675L119.651 23.1694H114.916L122.313 4.07275H126.817L134.214 23.1694H129.325L128.301 20.3275H128.304ZM127.024 16.7421L124.516 9.75422L121.981 16.7421H127.024Z" fill="white"/>
<path d="M139.569 23.167H135.345V3.2002H139.569V23.167Z" fill="white"/>
<path d="M145.891 21.2488V28.7997H141.667V8.47465H145.66V10.5488C146.966 8.96213 148.911 7.98962 151.293 7.98962C155.363 7.98962 158.461 11.3434 158.461 15.7453C158.461 20.1471 155.363 23.6545 151.293 23.6545C149.092 23.6545 147.171 22.7332 145.891 21.2488ZM149.935 19.9936C152.289 19.9936 154.03 18.1241 154.03 15.8476C154.03 13.5712 152.289 11.6505 149.935 11.6505C147.581 11.6505 145.762 13.5712 145.762 15.8233C145.762 18.0754 147.581 19.996 149.935 19.996V19.9936Z" fill="white"/>
<path d="M164.323 6.60518H160.023V3.2002H164.323V6.60518ZM164.272 23.167H160.048V8.47219H164.272V23.167Z" fill="white"/>
<path d="M170.594 23.1669H166.37V8.47213H170.389V10.2636C171.286 9.18872 172.949 8.08704 175.203 8.08704C178.223 8.08704 180.475 10.1612 180.475 13.5394V23.1645H176.227V14.819C176.227 12.6424 174.998 11.8235 173.463 11.8235C172.132 11.8235 170.596 12.8472 170.596 14.5631V23.1645L170.594 23.1669Z" fill="white"/>
<path d="M190.895 23.8836C185.313 23.8836 181.962 20.4786 181.962 15.8208C181.962 11.163 185.316 7.75806 190.127 7.75806C194.658 7.75806 198.087 11.163 198.087 15.8476V16.9493H186.466C186.824 19.2526 188.36 20.481 190.946 20.481C193.045 20.481 194.478 19.7645 195.604 18.7651L197.985 21.3C196.372 22.76 194.119 23.886 190.895 23.886V23.8836ZM186.593 14.1049H193.556C193.096 12.2867 191.892 11.2118 190.076 11.2118C188.26 11.2118 187.056 12.2867 186.595 14.1049H186.593Z" fill="white"/>
</svg>
